<svg viewBox="0 0 41 44" fill="none" xmlns="http://www.w3.org/2000/svg">
  <path d="M9.63812 15.2961L3.27412 21.6601C2.24144 22.679 1.42052 23.8922 0.858612 25.2297C0.296709 26.5672 0.00492882 28.0026 6.86646e-05 29.4534C-0.00479149 30.9041 0.277366 32.3415 0.830296 33.6827C1.38322 35.024 2.196 36.2426 3.22183 37.2684C4.24766 38.2942 5.46628 39.107 6.80752 39.6599C8.14876 40.2129 9.58612 40.495 11.0369 40.4902C12.4876 40.4853 13.923 40.1935 15.2605 39.6316C16.598 39.0697 17.8112 38.2488 18.8301 37.2161L20.9501 35.0961C21.2368 34.8195 21.4655 34.4886 21.6229 34.1226C21.7803 33.7567 21.8632 33.3631 21.8669 32.9648C21.8705 32.5664 21.7948 32.1713 21.6441 31.8026C21.4935 31.4338 21.2709 31.0988 20.9893 30.817C20.7078 30.5352 20.3729 30.3122 20.0043 30.1612C19.6357 30.0102 19.2407 29.9341 18.8423 29.9374C18.444 29.9407 18.0503 30.0232 17.6842 30.1803C17.3181 30.3373 16.987 30.5657 16.7101 30.8521L14.5861 32.9741C13.6469 33.9049 12.3772 34.4257 11.0549 34.4226C9.73266 34.4195 8.46544 33.8928 7.53057 32.9577C6.5957 32.0225 6.06932 30.7552 6.06661 29.4329C6.0639 28.1106 6.58509 26.8411 7.51612 25.9021L13.8801 19.5381C14.568 18.85 15.4417 18.3775 16.3941 18.1785C17.3465 17.9796 18.3363 18.0628 19.2421 18.4181C19.5648 18.5461 19.8675 18.6768 20.1501 18.8101L21.0781 19.2441C22.3181 19.8041 23.2721 20.0441 24.4861 18.8321C26.2301 17.0881 25.7781 15.4781 23.6521 14.0121C21.5343 12.5548 18.973 11.8853 16.4129 12.1199C13.8529 12.3545 11.4559 13.4782 9.63812 15.2961ZM21.6581 3.27612L19.5381 5.39611C18.9914 5.96166 18.6886 6.71933 18.6951 7.50593C18.7016 8.29252 19.0167 9.04511 19.5727 9.6016C20.1286 10.1581 20.8809 10.474 21.6675 10.4812C22.4541 10.4884 23.2121 10.1863 23.7781 9.64012L25.9001 7.52012C26.3612 7.04244 26.9128 6.66137 27.5228 6.39915C28.1327 6.13694 28.7888 5.99882 29.4527 5.99287C30.1166 5.98691 30.775 6.11323 31.3896 6.36446C32.0041 6.61569 32.5625 6.9868 33.0321 7.45613C33.5017 7.92546 33.8731 8.48361 34.1247 9.09802C34.3762 9.71243 34.5029 10.3708 34.4974 11.0347C34.4918 11.6986 34.354 12.3547 34.0922 12.9648C33.8303 13.5749 33.4495 14.1267 32.9721 14.5881L26.6081 20.9521C25.9203 21.6403 25.0466 22.1128 24.0941 22.3117C23.1417 22.5107 22.1519 22.4274 21.2461 22.0721C20.9235 21.9441 20.6208 21.8134 20.3381 21.6801L19.4101 21.2461C18.1701 20.6861 17.2141 20.4461 16.0021 21.6581C14.2581 23.4021 14.7101 25.0121 16.8361 26.4781C18.9539 27.9354 21.5153 28.6049 24.0753 28.3703C26.6354 28.1358 29.0324 27.012 30.8501 25.1941L37.2141 18.8301C38.2468 17.8112 39.0677 16.598 39.6296 15.2605C40.1915 13.923 40.4833 12.4876 40.4882 11.0369C40.493 9.58612 40.2109 8.14875 39.6579 6.80751C39.105 5.46627 38.2922 4.24766 37.2664 3.22183C36.2406 2.196 35.022 1.38322 33.6807 0.830288C32.3395 0.277359 30.9021 -0.00479842 29.4514 6.17337e-05C28.0007 0.00492189 26.5652 0.296704 25.2277 0.858607C23.8902 1.42051 22.6771 2.24344 21.6581 3.27612Z" fill="currentColor"/>
</svg>
