<svg viewBox="0 0 42 42" fill="none" xmlns="http://www.w3.org/2000/svg">
  <path d="M24 9.99995C24.5304 9.99995 25.0391 10.2107 25.4142 10.5857C25.7893 10.9608 26 11.4695 26 12C26 12.5304 25.7893 13.0391 25.4142 13.4142C25.0391 13.7892 24.5304 14 24 14H10C9.46957 14 8.96086 13.7892 8.58578 13.4142C8.21071 13.0391 8 12.5304 8 12C8 11.4695 8.21071 10.9608 8.58578 10.5857C8.96086 10.2107 9.46957 9.99995 10 9.99995H24Z" fill="currentColor"/>
  <path d="M13 19C12.4696 19 11.9609 19.2107 11.5858 19.5858C11.2107 19.9609 11 20.4696 11 21C11 21.5304 11.2107 22.0391 11.5858 22.4142C11.9609 22.7893 12.4696 23 13 23H27C27.5304 23 28.0391 22.7893 28.4142 22.4142C28.7893 22.0391 29 21.5304 29 21C29 20.4696 28.7893 19.9609 28.4142 19.5858C28.0391 19.2107 27.5304 19 27 19H13Z" fill="currentColor"/>
  <path d="M17 29C16.4696 29 15.9609 29.2107 15.5858 29.5857C15.2107 29.9608 15 30.4695 15 31C15 31.5304 15.2107 32.0391 15.5858 32.4142C15.9609 32.7892 16.4696 33 17 33H31C31.5304 33 32.0391 32.7892 32.4142 32.4142C32.7893 32.0391 33 31.5304 33 31C33 30.4695 32.7893 29.9608 32.4142 29.5857C32.0391 29.2107 31.5304 29 31 29H18.5H17Z" fill="currentColor"/>
  <path fill-rule="evenodd" clip-rule="evenodd" d="M0 11C-2.83836e-10 4.00001 4 5.72205e-06 11 5.72205e-06L31 0C38 0 42 4 42 11V30.9997C42 37.9997 38 41.9997 31 41.9997L11 42C4 42 0 38 0 31L0 11ZM11 2.99995C5.99936 2.99995 3 5.99973 3 11V30.9997C3 35.9255 6.11336 38.9997 11 38.9997H31C36 38.9997 39 36 39 31V11C39 5.99968 35.8909 2.99995 31 2.99995H11Z" fill="var(--background-color)"/>
</svg>
