<svg width="16" height="16" viewBox="0 0 16 16" fill="none" xmlns="http://www.w3.org/2000/svg">
<g clip-path="url(#clip0_129_6836)">
<path d="M8 16C6.89333 16 5.85333 15.7899 4.88 15.3696C3.90667 14.9493 3.06 14.3795 2.34 13.66C1.62 12.9405 1.05013 12.0939 0.630401 11.12C0.210668 10.1461 0.000534346 9.10613 1.01266e-06 8C-0.00053232 6.89386 0.209601 5.85387 0.630401 4.88C1.0512 3.90613 1.62107 3.05947 2.34 2.34C3.05893 1.62053 3.9056 1.05067 4.88 0.6304C5.8544 0.210133 6.8944 0 8 0C9.10559 0 10.1456 0.210133 11.12 0.6304C12.0944 1.05067 12.9411 1.62053 13.66 2.34C14.3789 3.05947 14.9491 3.90613 15.3704 4.88C15.7917 5.85387 16.0016 6.89386 16 8C15.9984 9.10613 15.7883 10.1461 15.3696 11.12C14.9509 12.0939 14.3811 12.9405 13.66 13.66C12.9389 14.3795 12.0923 14.9496 11.12 15.3704C10.1477 15.7912 9.10773 16.0011 8 16ZM8 14.4C9.78666 14.4 11.3 13.78 12.54 12.54C13.78 11.3 14.4 9.78666 14.4 8C14.4 6.21333 13.78 4.7 12.54 3.46C11.3 2.22 9.78666 1.6 8 1.6C6.21333 1.6 4.7 2.22 3.46 3.46C2.22 4.7 1.6 6.21333 1.6 8C1.6 9.78666 2.22 11.3 3.46 12.54C4.7 13.78 6.21333 14.4 8 14.4ZM8 12.8C6.66666 12.8 5.53333 12.3333 4.6 11.4C3.66667 10.4667 3.2 9.33333 3.2 8C3.2 6.66666 3.66667 5.53333 4.6 4.6C5.53333 3.66667 6.66666 3.2 8 3.2C9.33333 3.2 10.4667 3.66667 11.4 4.6C12.3333 5.53333 12.8 6.66666 12.8 8C12.8 9.33333 12.3333 10.4667 11.4 11.4C10.4667 12.3333 9.33333 12.8 8 12.8ZM8 11.2C8.88 11.2 9.63333 10.8867 10.26 10.26C10.8867 9.63333 11.2 8.88 11.2 8C11.2 7.12 10.8867 6.36666 10.26 5.74C9.63333 5.11333 8.88 4.8 8 4.8C7.12 4.8 6.36666 5.11333 5.74 5.74C5.11333 6.36666 4.8 7.12 4.8 8C4.8 8.88 5.11333 9.63333 5.74 10.26C6.36666 10.8867 7.12 11.2 8 11.2ZM8 9.6C7.56 9.6 7.18346 9.44346 6.8704 9.1304C6.55733 8.81733 6.40053 8.44053 6.4 8C6.39946 7.55946 6.55626 7.18293 6.8704 6.8704C7.18453 6.55787 7.56106 6.40106 8 6.4C8.43893 6.39893 8.81573 6.55573 9.13039 6.8704C9.44506 7.18506 9.60159 7.5616 9.59999 8C9.59839 8.4384 9.44186 8.8152 9.13039 9.1304C8.81893 9.4456 8.44213 9.60213 8 9.6Z" fill="#626D84"/>
</g>
<defs>
<clipPath id="clip0_129_6836">
<rect width="16" height="16" fill="white"/>
</clipPath>
</defs>
</svg>
