<svg width="16" height="16" viewBox="0 0 16 16" fill="none" xmlns="http://www.w3.org/2000/svg">
<path d="M15.5602 4.01297C15.4829 3.83197 15.335 3.68814 15.1488 3.61297C15.0572 3.57501 14.9588 3.55488 14.8593 3.55371H11.0497C10.8477 3.55371 10.6539 3.63175 10.511 3.77067C10.3681 3.90958 10.2878 4.09799 10.2878 4.29445C10.2878 4.49091 10.3681 4.67932 10.511 4.81823C10.6539 4.95715 10.8477 5.03519 11.0497 5.03519H13.0231L8.76403 9.17593L6.25737 6.73149C6.18654 6.66206 6.10227 6.60695 6.00942 6.56935C5.91658 6.53174 5.81699 6.51238 5.71641 6.51238C5.61583 6.51238 5.51625 6.53174 5.4234 6.56935C5.33056 6.60695 5.24629 6.66206 5.17546 6.73149L0.604032 11.1759C0.53262 11.2448 0.475939 11.3267 0.437258 11.417C0.398577 11.5073 0.378662 11.6041 0.378662 11.7019C0.378662 11.7996 0.398577 11.8965 0.437258 11.9867C0.475939 12.077 0.53262 12.1589 0.604032 12.2278C0.674861 12.2972 0.759129 12.3523 0.851974 12.3899C0.944819 12.4275 1.0444 12.4469 1.14498 12.4469C1.24557 12.4469 1.34515 12.4275 1.438 12.3899C1.53084 12.3523 1.61511 12.2972 1.68594 12.2278L5.71641 8.30186L8.22308 10.7463C8.29391 10.8157 8.37818 10.8708 8.47102 10.9084C8.56387 10.9461 8.66345 10.9654 8.76403 10.9654C8.86461 10.9654 8.9642 10.9461 9.05704 10.9084C9.14989 10.8708 9.23416 10.8157 9.30499 10.7463L14.0974 6.07964V7.99816C14.0974 8.19461 14.1776 8.38302 14.3205 8.52194C14.4634 8.66085 14.6572 8.7389 14.8593 8.7389C15.0613 8.7389 15.2551 8.66085 15.398 8.52194C15.5409 8.38302 15.6212 8.19461 15.6212 7.99816V4.29445C15.62 4.19765 15.5993 4.10202 15.5602 4.01297Z" fill="#626D84"/>
</svg>
