<svg width="32" height="32" viewBox="0 0 32 32" fill="none" xmlns="http://www.w3.org/2000/svg">
<path d="M26.509 7.97466H23.4992C23.2006 7.97466 22.9585 8.21671 22.9585 8.51531V9.32629C22.9585 9.39459 22.9712 9.45993 22.9943 9.5201C23.0722 9.72296 23.2689 9.86695 23.4992 9.86695H26.509C26.8076 9.86695 27.0496 9.62489 27.0496 9.32629V8.51531C27.0496 8.21672 26.8076 7.97466 26.509 7.97466Z" fill="#F0C238"/>
<path d="M26.509 26.1204H23.4002C23.1016 26.1204 22.8596 26.3624 22.8596 26.661V27.472C22.8596 27.7706 23.1016 28.0127 23.4002 28.0127H26.509C26.8076 28.0127 27.0496 27.7706 27.0496 27.472V26.661C27.0496 26.3624 26.8076 26.1204 26.509 26.1204Z" fill="#F0C238"/>
<path d="M17.8585 4.4736C15.783 4.45311 15.4141 3.87765 15.7267 2.16262C13.9702 2.85875 14.4015 4.81036 15.551 5.34004C15.7992 5.45443 16.081 5.5025 16.3814 5.45729C16.8472 5.38718 17.358 5.0928 17.8585 4.4736Z" fill="#F0C238"/>
<path fill-rule="evenodd" clip-rule="evenodd" d="M6.58923 31.8986C3.24393 31.8986 0.135164 29.2291 0 25.0729V6.82577C0.135164 2.66948 3.24393 0 6.58923 0H25.4108C28.7561 0 31.8648 2.66948 32 6.82577V25.0729C31.8648 29.2291 28.7561 31.8986 25.4108 31.8986H6.58923ZM5.49102 9.86695C5.49102 8.58289 6.96522 8.1774 8.1943 8.88701C8.93837 9.39458 9.5942 9.86413 10.1942 10.3159C12.216 11.8385 13.6031 13.1597 15.5937 15.0556L15.5957 15.0575L15.6006 15.0622C15.7311 15.1864 15.8641 15.3131 16 15.4424C16.1384 15.3108 16.2737 15.1819 16.4063 15.0556C18.7345 12.8382 20.3362 11.4069 22.9943 9.5201C22.9712 9.45993 22.9585 9.39459 22.9585 9.32629V8.51531C22.9585 8.21671 23.2006 7.97466 23.4992 7.97466C23.4513 7.00519 23.3762 6.01479 23.5211 5.47413C23.9385 4.4942 24.2088 3.91975 24.9453 3.0074V2.12883C24.9453 2.06125 25.0848 2.06125 25.0848 2.12883V3.0074C25.8213 3.91975 26.0916 4.4942 26.509 5.47413C26.6538 6.01479 26.5569 7.00519 26.509 7.97466C26.8076 7.97466 27.0496 8.21672 27.0496 8.51531V9.32629C27.0496 9.62489 26.8076 9.86695 26.509 9.86695V26.1204C26.8076 26.1204 27.0496 26.3624 27.0496 26.661V27.472C27.0496 27.7706 26.8076 28.0127 26.509 28.0127H23.4002C23.1016 28.0127 22.8596 27.7706 22.8596 27.472V26.661C22.8596 26.3624 23.1016 26.1204 23.4002 26.1204L23.4992 14.8381C23.4992 14.1622 22.9313 14.0379 22.5554 14.1246C22.1162 14.226 17.6895 18.2809 17.6895 19.1594V29.4319C17.6895 29.6008 16.7096 29.6008 16 29.6008C15.2904 29.6008 14.3105 29.6008 14.3105 29.4319V19.1594C14.3105 18.2809 9.88384 14.226 9.44456 14.1246C9.06873 14.0379 8.50083 14.1622 8.50083 14.8381L8.59979 28.0127C7.0792 28.0127 5.49103 26.661 5.49103 24.6674L5.49102 9.86695ZM16 8.85322C14.9187 8.85322 13.1278 10.6103 12.5533 11.1848C11.9394 10.6613 11.3214 10.1642 10.6094 9.63041C12.0104 8.1075 14.1107 6.4477 15.551 6.13504V5.34004C14.4015 4.81036 13.9702 2.85875 15.7267 2.16262C15.4141 3.87765 15.783 4.45311 17.8585 4.4736C17.358 5.0928 16.8472 5.38718 16.3814 5.45729V6.12122C17.8229 6.39633 19.9681 8.08413 21.3906 9.63041C20.6786 10.1642 20.0606 10.6613 19.4467 11.1848C18.8722 10.6103 17.0813 8.85322 16 8.85322Z" fill="#209268"/>
</svg>
