<svg width="17" height="15" viewBox="0 0 17 15" fill="none" xmlns="http://www.w3.org/2000/svg">
<path d="M1.7 14.5C1.2325 14.5 0.832433 14.3288 0.4998 13.9864C0.167167 13.644 0.000566667 13.2318 0 12.75V2.25C0 1.76875 0.1666 1.35692 0.4998 1.0145C0.833 0.672083 1.23307 0.500583 1.7 0.5H15.3C15.7675 0.5 16.1678 0.6715 16.501 1.0145C16.8342 1.3575 17.0006 1.76933 17 2.25V12.75C17 13.2312 16.8337 13.6434 16.501 13.9864C16.1684 14.3294 15.7681 14.5006 15.3 14.5H1.7ZM8.5 8.375L1.7 4V12.75H15.3V4L8.5 8.375ZM8.5 6.625L15.3 2.25H1.7L8.5 6.625ZM1.7 4V2.25V12.75V4Z" fill="#626D84"/>
</svg>
