<svg viewBox="0 0 18 19" fill="fill-current" xmlns="http://www.w3.org/2000/svg" class="stroke-current">
  <path d="M5.5 1.5C6.47992 1.5 7.27711 2.29748 7.27734 3.27734C7.27734 4.03423 7.38402 4.76275 7.58105 5.44922L7.6709 5.74121L7.6748 5.75488C7.86702 6.36668 7.7261 7.06199 7.2334 7.55469L6.05469 8.73242C6.96316 10.2528 8.24325 11.5295 9.76758 12.4434L10.9453 11.2666L11.0371 11.1797C11.5092 10.7704 12.1659 10.6388 12.7578 10.8369H12.7588C13.5289 11.0913 14.365 11.2305 15.2227 11.2305C16.2025 11.2307 17 12.0279 17 13.0078V15.7227C16.9998 16.7024 16.2024 17.4998 15.2227 17.5C7.36704 17.5 1 11.133 1 3.27734C1.00024 2.29762 1.79762 1.50024 2.77734 1.5H5.5Z" stroke="currentColor" stroke-width="2"/>
</svg>
