<svg width="29" height="29" viewBox="0 0 29 29" fill="none" xmlns="http://www.w3.org/2000/svg">
<path d="M14.4925 2.5V4M23.4869 20.5H26.485M17.4906 20.5H14.4925V26.5M14.4925 10V14.5M14.4925 14.5H14.5075M14.4925 14.5H20.5037M20.4888 26.5H26.485M2.5 14.5H8.49625M26.485 14.5H26.5M3.99906 8.5H6.99719C7.39477 8.5 7.77606 8.34196 8.05719 8.06066C8.33832 7.77936 8.49625 7.39782 8.49625 7V4C8.49625 3.60218 8.33832 3.22064 8.05719 2.93934C7.77606 2.65804 7.39477 2.5 6.99719 2.5H3.99906C3.60149 2.5 3.22019 2.65804 2.93907 2.93934C2.65794 3.22064 2.5 3.60218 2.5 4V7C2.5 7.39782 2.65794 7.77936 2.93907 8.06066C3.22019 8.34196 3.60149 8.5 3.99906 8.5ZM21.9878 8.5H24.9859C25.3835 8.5 25.7648 8.34196 26.0459 8.06066C26.3271 7.77936 26.485 7.39782 26.485 7V4C26.485 3.60218 26.3271 3.22064 26.0459 2.93934C25.7648 2.65804 25.3835 2.5 24.9859 2.5H21.9878C21.5902 2.5 21.2089 2.65804 20.9278 2.93934C20.6467 3.22064 20.4888 3.60218 20.4888 4V7C20.4888 7.39782 20.6467 7.77936 20.9278 8.06066C21.2089 8.34196 21.5902 8.5 21.9878 8.5ZM3.99906 26.5H6.99719C7.39477 26.5 7.77606 26.342 8.05719 26.0607C8.33832 25.7794 8.49625 25.3978 8.49625 25V22C8.49625 21.6022 8.33832 21.2206 8.05719 20.9393C7.77606 20.658 7.39477 20.5 6.99719 20.5H3.99906C3.60149 20.5 3.22019 20.658 2.93907 20.9393C2.65794 21.2206 2.5 21.6022 2.5 22V25C2.5 25.3978 2.65794 25.7794 2.93907 26.0607C3.22019 26.342 3.60149 26.5 3.99906 26.5Z" stroke="#209268" stroke-width="4" stroke-linecap="round" stroke-linejoin="round"/>
</svg>
